<?xml version="1.0" encoding="utf-8"?>
<!-- Generator: Adobe Illustrator 17.0.0, SVG Export Plug-In . SVG Version: 6.00 Build 0)  -->
<!DOCTYPE svg PUBLIC "-//W3C//DTD SVG 1.1//EN" "http://www.w3.org/Graphics/SVG/1.1/DTD/svg11.dtd">
<svg version="1.1" id="Layer_1" xmlns="http://www.w3.org/2000/svg" xmlns:xlink="http://www.w3.org/1999/xlink" x="0px" y="0px"
	 width="142.5px" height="29.123px" viewBox="0 0 142.5 29.123" enable-background="new 0 0 142.5 29.123" xml:space="preserve">
<g>
	<g>
		<g>
			<g>
				<g>
					<path fill="#4a4397" d="M25.625,16.135v10.163c0,1.504-1.078,2.593-2.568,2.593c-1.026,0-2.465-1.089-2.465-2.593
						c-2.208,1.866-4.673,2.593-7.599,2.593C5.752,28.891,0,23.446,0,16.135S5.752,3.017,12.994,3.017
						C20.234,3.017,25.625,8.824,25.625,16.135z M20.593,16.135c0-4.355-3.286-8.037-7.599-8.037c-4.314,0-7.96,3.681-7.96,8.037
						s3.646,7.674,7.96,7.674C17.306,23.809,20.593,20.491,20.593,16.135z"/>
					<path fill="#4a4397" d="M49.404,5.506V18.52v0.052c-0.051,5.756-4.674,10.422-10.425,10.422c-5.7,0-10.321-4.667-10.373-10.422
						V18.52V5.506c0-1.4,1.13-2.541,2.516-2.541c1.438,0,2.568,1.141,2.568,2.541v12.963c0,2.956,2.362,5.393,5.289,5.393
						c2.979,0,5.341-2.437,5.341-5.393V5.506c0-1.4,1.13-2.541,2.568-2.541C48.274,2.965,49.404,4.106,49.404,5.506z"/>
					<path fill="#4a4397" d="M67.791,5.506c0,1.4-1.13,2.593-2.568,2.593c-4.314,0-7.806,3.526-7.806,7.881v10.422
						c0,1.4-1.129,2.593-2.516,2.593c-1.438,0-2.568-1.193-2.568-2.593V15.979c0-7.207,5.803-13.014,12.89-13.014
						C66.66,2.965,67.791,4.106,67.791,5.506z"/>
					<path fill="#4a4397" d="M67.635,15.928c0-7.207,5.803-13.015,12.89-13.015c7.137,0,12.889,5.808,12.889,13.015
						c0,7.155-5.751,13.014-12.889,13.014C73.438,28.942,67.635,23.084,67.635,15.928z M72.719,15.928
						c0,4.304,3.492,7.881,7.806,7.881c4.313,0,7.805-3.577,7.805-7.881c0-4.356-3.492-7.881-7.805-7.881
						C76.211,8.047,72.719,11.572,72.719,15.928z"/>
					<path fill="#4a4397" d="M111.903,5.506c0,1.4-1.13,2.593-2.568,2.593c-4.314,0-7.806,3.526-7.806,7.881v10.422
						c0,1.4-1.129,2.593-2.516,2.593c-1.438,0-2.568-1.193-2.568-2.593V15.979c0-7.207,5.803-13.014,12.89-13.014
						C110.773,2.965,111.903,4.106,111.903,5.506z"/>
					<path fill="#4a4397" d="M137.218,16.135v10.163c0,1.504-1.078,2.593-2.568,2.593c-1.026,0-2.465-1.089-2.465-2.593
						c-2.208,1.866-4.673,2.593-7.599,2.593c-7.241,0-12.993-5.445-12.993-12.756s5.751-13.118,12.993-13.118
						C131.827,3.017,137.218,8.824,137.218,16.135z M132.186,16.135c0-4.355-3.286-8.037-7.599-8.037
						c-4.314,0-7.96,3.681-7.96,8.037s3.646,7.674,7.96,7.674C128.899,23.809,132.186,20.491,132.186,16.135z"/>
				</g>
			</g>
		</g>
		<path fill="#FF4399" d="M140.501,16.144V0.128H126.4C132.94,1.622,139.616,5.603,140.501,16.144z"/>
	</g>
</g>
</svg>
